<?xml version="1.0" standalone="no"?>
<!DOCTYPE svg PUBLIC "-//W3C//DTD SVG 20010904//EN"
 "http://www.w3.org/TR/2001/REC-SVG-20010904/DTD/svg10.dtd">
<svg version="1.0" xmlns="http://www.w3.org/2000/svg"
 width="349.000000pt" height="349.000000pt" viewBox="0 0 349.000000 349.000000"
 preserveAspectRatio="xMidYMid meet">
<metadata>
Created by potrace 1.14, written by Peter Selinger 2001-2017
</metadata>
<g transform="translate(0.000000,349.000000) scale(0.100000,-0.100000)"
fill="#000000" stroke="none">
<path d="M1 3445 c2 -38 5 -44 20 -40 10 4 27 1 39 -5 13 -7 20 -7 20 0 0 5 7
10 15 10 11 0 15 -11 15 -40 l0 -40 40 0 c22 0 40 -4 40 -9 0 -11 -65 -9 -76
2 -4 4 -26 7 -48 7 -28 0 -37 3 -27 9 8 5 20 7 28 4 7 -3 13 2 13 11 0 10 -9
16 -24 16 -13 0 -32 3 -41 6 -14 6 -16 -9 -14 -140 1 -136 2 -146 20 -146 10
0 27 7 38 16 16 14 18 26 13 80 -4 59 -3 64 15 64 11 0 23 3 27 7 11 11 76 13
76 2 0 -5 11 -9 25 -9 14 0 25 5 25 10 0 6 -7 10 -15 10 -8 0 -15 9 -15 20 0
11 7 20 15 20 12 0 15 17 15 90 l0 90 -44 0 c-39 0 -45 -3 -48 -22 -2 -16 -11
-24 -28 -27 -24 -3 -24 -2 -7 16 9 11 17 23 17 26 0 12 -38 7 -43 -5 -3 -10
-9 -10 -26 0 -11 6 -30 12 -41 12 -18 0 -21 -5 -19 -45z m156 -27 c-3 -8 -6
-5 -6 6 -1 11 2 17 5 13 3 -3 4 -12 1 -19z"/>
<path d="M320 3479 c0 -5 5 -7 10 -4 6 3 10 8 10 11 0 2 -4 4 -10 4 -5 0 -10
-5 -10 -11z"/>
<path d="M380 3477 c0 -12 27 -37 39 -37 6 0 11 -4 11 -10 0 -15 -21 -12 -42
7 -16 14 -22 14 -43 3 -24 -13 -25 -18 -25 -102 l0 -88 40 0 c24 0 40 5 40 12
0 9 3 9 12 0 7 -7 20 -12 31 -12 12 0 17 -6 15 -17 -5 -25 -29 -28 -35 -4 -3
12 -9 21 -14 21 -13 0 -11 -27 4 -50 10 -17 9 -22 -1 -29 -19 -12 -11 -62 12
-75 11 -6 30 -21 42 -33 14 -16 33 -23 58 -23 40 0 51 -24 15 -33 -12 -3 -18
-10 -15 -16 4 -6 -5 -13 -19 -17 -19 -5 -24 -11 -19 -23 3 -9 9 -24 12 -34 3
-14 12 -18 30 -14 31 6 57 -17 47 -41 -5 -11 -9 -13 -12 -5 -7 19 -42 -3 -53
-33 -5 -13 -14 -24 -20 -24 -14 0 -13 47 2 52 7 3 9 11 4 24 -6 12 -10 15 -13
7 -3 -7 -9 -13 -15 -13 -6 0 -5 6 2 15 7 9 10 18 7 21 -12 13 -87 16 -101 5
-11 -9 -19 -9 -35 1 -32 20 -25 30 17 25 20 -2 29 -2 20 0 -24 6 -23 23 2 23
11 0 20 5 20 10 0 6 -9 10 -20 10 -33 0 -22 17 16 24 19 4 34 12 32 18 -6 18
-28 21 -28 5 0 -19 -56 -30 -95 -18 -29 9 -29 10 -7 16 12 4 22 15 22 24 0 16
-41 41 -67 41 -9 0 -13 14 -13 40 0 36 -2 40 -25 40 -22 0 -25 -4 -25 -40 0
-29 -4 -40 -15 -40 -12 0 -15 -16 -15 -80 0 -64 3 -80 15 -80 8 0 15 -7 15
-15 0 -8 -7 -15 -15 -15 -9 0 -15 -9 -15 -25 0 -20 5 -25 25 -25 16 0 25 6 25
15 0 9 9 15 22 15 12 0 30 7 40 17 17 15 18 14 24 -15 7 -32 19 -42 26 -20 3
9 6 9 12 0 4 -7 2 -12 -3 -12 -6 0 -11 -21 -11 -50 l0 -50 55 0 c53 0 55 -1
43 -20 -10 -15 -24 -20 -55 -20 -26 0 -43 -5 -43 -11 0 -8 19 -10 63 -6 42 4
55 3 40 -3 -16 -6 -23 -18 -23 -35 0 -14 5 -25 10 -25 6 0 10 -4 10 -10 0 -5
-11 -10 -25 -10 -14 0 -25 -4 -25 -10 0 -5 -7 -10 -15 -10 -8 0 -15 5 -15 10
0 6 -23 10 -51 10 -47 0 -50 -1 -44 -22 3 -13 3 -18 -2 -12 -9 12 -71 24 -91
17 -7 -3 -19 -18 -27 -34 -9 -16 -21 -29 -28 -29 -12 0 -37 -44 -37 -67 0 -7
-4 -13 -10 -13 -5 0 -10 11 -10 25 0 16 -6 25 -15 25 -8 0 -15 -8 -15 -17 0
-10 -3 -28 -6 -40 -6 -21 -3 -23 39 -23 36 0 46 -4 50 -19 3 -14 11 -18 25
-14 11 2 23 0 26 -5 3 -6 -7 -13 -24 -17 -16 -4 -32 -11 -35 -16 -4 -5 -24 -9
-46 -9 l-39 0 0 -101 0 -101 99 -131 c55 -73 120 -159 146 -192 56 -73 139
-186 206 -280 46 -65 49 -71 32 -83 -10 -7 -63 -44 -117 -83 -113 -78 -174
-132 -235 -204 -23 -27 -50 -59 -60 -70 -42 -49 -73 -95 -69 -106 2 -7 14 4
26 24 13 19 38 49 57 66 19 17 35 37 35 44 0 25 172 180 277 250 110 73 286
163 301 153 9 -5 -15 -217 -38 -341 -30 -158 -106 -376 -160 -455 -40 -61 -69
-119 -61 -124 4 -3 52 23 105 58 53 36 96 60 96 55 0 -6 -9 -31 -19 -57 -57
-139 -151 -411 -151 -437 0 -9 -11 -27 -25 -40 -16 -17 -20 -25 -10 -25 19 0
19 0 -4 -87 l-19 -73 1409 0 1409 0 -6 27 c-12 53 -76 238 -95 273 -10 19 -50
99 -88 177 -38 78 -83 161 -98 185 -50 78 -180 234 -241 289 l-59 54 31 142
c18 78 35 146 39 150 8 7 119 -103 182 -182 22 -28 45 -55 50 -61 6 -6 21 -26
35 -44 14 -19 44 -58 68 -87 23 -29 42 -55 42 -58 0 -3 16 -28 36 -57 20 -28
48 -77 61 -107 14 -31 36 -81 50 -111 14 -30 43 -111 65 -180 112 -351 132
-410 139 -410 4 0 -12 60 -36 133 -24 72 -64 196 -90 275 -77 241 -143 371
-285 558 -109 142 -180 226 -252 295 -58 56 -73 89 -41 89 15 0 15 1 1 12 -14
12 -14 23 1 125 9 61 19 114 23 118 12 12 305 -155 323 -184 6 -10 -26 -16
-164 -31 -52 -6 -97 -13 -100 -15 -7 -8 38 -5 168 10 l124 15 36 -27 c60 -44
189 -182 267 -286 l74 -98 0 241 c0 132 -3 240 -7 240 -3 0 -14 -7 -24 -16
-10 -9 -23 -13 -29 -9 -7 5 3 16 27 31 34 21 35 23 14 24 -13 0 -29 -8 -36
-17 -11 -14 -16 -15 -28 -5 -12 10 -16 10 -20 0 -4 -10 -8 -10 -16 2 -6 8 -12
18 -13 22 -2 4 -23 8 -48 9 -60 2 -80 8 -80 23 0 12 -40 36 -60 36 -6 0 -10
-7 -10 -15 0 -19 -9 -19 -34 0 -11 8 -14 16 -8 16 7 1 18 2 25 3 6 0 13 18 15
39 3 31 0 37 -17 37 -16 0 -21 8 -24 43 l-4 42 -1 -42 c-1 -31 -6 -43 -17 -43
-11 0 -15 11 -15 40 0 22 4 40 10 40 18 0 31 39 20 60 -7 14 -7 20 0 20 5 0
10 4 10 10 0 6 -33 9 -80 8 -59 -1 -80 -5 -80 -15 0 -7 5 -13 10 -13 6 0 10
-4 10 -10 0 -6 -9 -6 -25 0 -16 6 -25 6 -25 0 0 -6 -11 -3 -25 6 -24 16 -25
16 -25 -10 0 -15 7 -38 16 -52 9 -13 14 -27 11 -30 -10 -10 -49 77 -44 97 3
11 1 17 -4 14 -5 -4 -6 8 -3 25 4 19 2 30 -5 30 -6 0 -11 10 -11 22 0 21 0 21
15 2 8 -10 15 -14 15 -7 0 6 3 19 7 29 5 13 3 16 -10 11 -9 -3 -17 -2 -17 2 0
5 -3 18 -7 28 -6 15 -4 16 9 5 13 -10 17 -10 21 0 4 8 6 7 6 -4 1 -10 7 -18
15 -18 7 0 21 -11 30 -25 14 -21 14 -25 2 -25 -8 0 -18 5 -21 10 -13 21 -25 8
-25 -28 0 -28 6 -41 22 -51 16 -10 23 -10 26 -2 2 6 10 11 18 11 8 0 14 7 14
15 0 12 7 14 26 9 21 -5 25 -4 19 6 -6 10 -4 11 11 5 10 -5 38 -10 62 -13 34
-3 42 -1 42 12 0 12 -10 16 -37 16 -46 0 -69 34 -50 74 10 20 17 23 49 18 l38
-5 0 42 c0 35 -3 41 -22 41 -12 0 -37 -5 -55 -12 -28 -10 -36 -10 -43 2 -7 12
-12 12 -28 -3 -10 -9 -24 -17 -30 -17 -7 0 -12 -11 -12 -25 0 -16 -6 -25 -15
-25 -8 0 -15 8 -15 18 0 9 -9 28 -20 42 -11 14 -20 33 -20 42 0 9 -4 20 -10
23 -22 14 -10 35 20 35 28 0 30 2 30 40 0 22 -4 40 -10 40 -5 0 -10 -16 -10
-37 0 -35 -1 -35 -19 -19 -11 10 -17 25 -14 36 4 16 1 18 -17 15 -13 -2 -25
-6 -27 -9 -3 -3 -5 -40 -5 -83 l0 -78 -14 39 c-11 31 -12 47 -3 74 9 26 9 36
-1 42 -9 6 -9 13 -1 29 13 24 26 29 17 6 -3 -8 -1 -15 4 -15 6 0 10 14 10 30
0 23 4 30 20 30 11 0 20 5 20 10 0 6 7 10 15 10 11 0 15 11 15 40 l0 40 -40 0
c-22 0 -40 -4 -40 -9 0 -5 -18 -7 -40 -4 -38 5 -40 4 -42 -23 0 -16 0 -38 1
-48 2 -31 -8 -14 -23 37 -9 29 -10 47 -4 47 6 0 7 7 4 16 -4 9 -2 22 4 29 7 9
6 16 -5 25 -14 11 -22 90 -10 90 3 0 24 -18 45 -40 l40 -41 0 41 c0 33 -3 40
-20 40 -15 0 -20 7 -20 25 0 21 -3 24 -17 17 -9 -6 -29 -6 -45 -2 -28 9 -28 8
-28 -36 0 -32 -4 -44 -15 -44 -16 0 -21 15 -7 23 4 2 2 2 -5 1 -7 -2 -15 1
-18 6 -6 9 8 14 28 11 11 -2 8 57 -3 64 -6 4 -7 11 -4 17 4 6 10 5 15 -3 7
-11 9 -10 9 5 0 19 19 19 103 0 26 -6 27 -5 27 35 0 22 -4 41 -10 41 -15 0
-12 26 5 40 8 7 15 19 15 26 0 18 -46 19 -53 2 -4 -10 -6 -10 -6 0 -1 14 -77
17 -83 3 -1 -4 -13 -12 -25 -15 -17 -6 -23 -3 -23 8 0 9 -7 16 -15 16 -11 0
-15 -11 -15 -37 l-1 -38 -22 28 c-25 29 -54 36 -63 13 -3 -8 -12 -17 -19 -20
-9 -3 -12 0 -8 10 3 7 10 14 15 14 6 0 8 7 4 15 -4 11 2 15 22 16 l27 0 -24
10 c-14 5 -40 10 -58 11 -37 1 -46 15 -10 15 85 -1 109 3 98 17 -15 18 -87 29
-111 16 -16 -8 -18 -8 -14 4 3 8 22 18 42 23 20 5 37 15 37 22 0 16 -75 41
-122 41 -32 0 -33 2 -33 40 0 33 -3 40 -20 40 -11 0 -20 4 -20 9 0 21 13 41
26 41 8 0 14 7 14 15 0 18 -41 20 -58 3 -10 -10 -15 -10 -22 2 -7 11 -10 4
-10 -25 0 -43 -17 -80 -27 -57 -2 6 -11 12 -18 12 -9 0 -15 15 -18 43 l-4 42
-1 -42 c-2 -44 -5 -47 -54 -43 -32 2 -37 -14 -10 -29 15 -9 15 -12 2 -21 -8
-5 -26 -9 -40 -9 -25 0 -25 0 -2 9 26 11 29 18 5 16 -10 0 -18 6 -18 14 0 22
-50 33 -132 31 -45 -1 -73 2 -73 9 0 5 12 10 27 10 36 0 133 23 133 31 0 12
-43 19 -112 19 l-68 0 0 -39 c0 -22 5 -42 13 -44 7 -3 5 -6 -5 -6 -10 -1 -21
-2 -25 -3 -4 -2 -6 18 -4 45 2 37 -1 47 -13 47 -12 0 -16 -10 -16 -40 0 -30
-4 -40 -16 -40 -8 0 -12 -4 -9 -10 3 -5 -3 -10 -14 -10 -11 0 -22 -4 -25 -9
-7 -10 -31 -9 -42 2 -4 4 -13 2 -21 -4 -7 -6 -13 -8 -13 -5 0 4 -14 -1 -31
-11 -24 -13 -33 -15 -36 -5 -3 6 -13 12 -24 12 -10 0 -19 5 -19 10 0 6 9 10
20 10 11 0 20 -4 20 -10 0 -5 9 -10 20 -10 16 0 20 7 20 35 0 24 -5 35 -15 35
-8 0 -17 11 -21 25 -4 16 -13 25 -25 25 -15 0 -19 7 -19 40 0 22 -4 40 -10 40
-5 0 -10 18 -10 40 0 22 5 40 10 40 6 0 10 18 10 40 l0 40 -40 0 -40 0 0 -40
0 -40 -42 -1 -43 -1 45 -13 45 -12 -42 -8 c-49 -9 -56 -22 -15 -31 44 -10 49
-12 20 -13 -20 -1 -26 -5 -22 -16 4 -8 -1 -17 -10 -21 -28 -11 -17 -24 24 -30
22 -4 40 -10 40 -14 0 -4 10 -10 23 -14 17 -5 19 -8 8 -15 -16 -10 -7 -16 36
-26 35 -7 55 -25 29 -25 -9 0 -16 -4 -16 -10 0 -5 -9 -10 -20 -10 -22 0 -27
15 -7 23 6 3 -3 6 -20 6 -23 1 -33 -4 -33 -14 0 -8 9 -15 20 -15 11 0 20 -4
20 -10 0 -5 7 -10 16 -10 15 0 44 -23 44 -34 0 -3 -11 -6 -25 -6 -14 0 -34 -8
-45 -17 -19 -16 -19 -18 -3 -25 15 -5 14 -7 -6 -7 -16 -1 -21 3 -18 13 6 15
-11 36 -29 36 -6 0 -15 -12 -19 -27 l-8 -28 -13 30 -13 30 -1 -42 c0 -32 4
-43 15 -43 8 0 15 -4 15 -10 0 -5 7 -10 15 -10 8 0 15 6 15 13 0 9 3 8 9 -2 5
-8 11 -9 15 -3 3 6 37 10 75 9 44 0 75 4 85 12 13 11 16 11 16 -1 0 -9 -21
-24 -47 -35 -53 -22 -82 -20 -62 3 9 11 7 14 -10 14 -11 0 -21 -4 -21 -10 0
-5 -9 -10 -21 -10 -13 0 -18 -4 -13 -12 4 -7 4 -10 -1 -6 -4 4 -16 3 -26 -2
-12 -7 -19 -6 -23 3 -3 9 -1 -28 3 -40 1 -1 13 2 27 7 20 8 25 7 22 -2 -5 -13
-9 -15 -55 -17 -22 -1 -25 -3 -13 -11 8 -5 10 -10 5 -10 -6 0 -17 6 -24 13
-11 10 -14 10 -18 0 -3 -7 -13 -13 -23 -13 -24 0 -34 27 -12 33 12 3 11 5 -5
6 -27 1 -50 38 -34 54 8 8 11 4 11 -14 0 -21 4 -24 40 -24 37 -1 40 1 40 27 0
25 -3 28 -24 22 -13 -3 -34 -1 -46 6 -16 8 -25 8 -35 0 -20 -17 -55 9 -55 41
0 14 -3 29 -7 33 -4 4 -6 27 -4 51 l3 45 -36 0 c-35 0 -36 -1 -36 -36 0 -26 7
-43 25 -60 14 -13 25 -30 25 -38 0 -9 -11 -18 -25 -22 -21 -5 -25 -12 -25 -45
0 -21 5 -39 10 -39 6 0 10 -6 10 -14 0 -7 7 -19 16 -27 8 -7 13 -21 11 -31 -3
-10 -1 -18 4 -18 5 0 9 -7 9 -15 0 -14 -3 -13 -24 2 -13 10 -22 23 -19 29 2 7
0 15 -5 18 -5 3 -12 -4 -15 -15 -4 -16 4 -30 29 -55 l35 -33 -29 -15 c-25 -13
-32 -13 -48 -1 -11 8 -14 15 -8 15 5 0 14 -4 20 -10 6 -6 9 0 9 18 -1 22 -7
28 -32 30 -18 2 -37 -3 -47 -13 -9 -9 -22 -15 -29 -12 -6 2 -22 0 -34 -4 -35
-13 -29 14 7 29 17 8 30 21 30 29 0 11 -4 13 -13 6 -15 -12 -47 -13 -47 -1 0
4 -18 8 -40 8 -40 0 -40 0 -40 -39 0 -37 1 -39 40 -45 42 -7 58 -36 20 -36
-11 0 -20 5 -20 10 0 6 -9 10 -20 10 -11 0 -20 5 -20 10 0 6 -13 10 -30 10
-28 0 -30 -2 -30 -40 l0 -40 -66 0 c-48 0 -65 -3 -62 -12 3 -7 19 -14 36 -16
35 -4 45 -22 12 -22 -11 0 -20 -7 -20 -15 0 -8 6 -15 14 -15 10 0 16 -13 18
-37 3 -40 32 -56 41 -22 3 10 13 19 22 19 15 0 16 -2 4 -17 -8 -9 -9 -14 -2
-10 7 5 10 -3 9 -24 -2 -21 4 -35 16 -42 10 -7 18 -19 18 -27 -1 -12 -4 -11
-15 4 -19 25 -30 15 -16 -13 9 -16 8 -32 -5 -71 -17 -52 -35 -69 -26 -25 2 15
0 25 -7 25 -6 0 -11 7 -11 15 0 8 5 15 10 15 15 0 12 39 -4 56 -17 16 -52 19
-61 4 -8 -13 -75 -13 -75 1 0 5 -4 7 -10 4 -5 -3 -10 3 -10 14 0 17 -6 21 -35
21 -24 0 -35 5 -35 15 0 8 -4 15 -10 15 -5 0 -10 -18 -10 -40 0 -22 -4 -40
-10 -40 -11 0 -14 59 -4 84 3 9 12 16 20 16 8 0 14 9 14 20 0 11 -7 20 -15 20
-8 0 -15 5 -15 10 0 10 11 13 45 11 11 -1 38 15 60 34 33 29 37 37 25 45 -12
8 -11 10 7 10 27 0 53 10 53 20 0 5 -22 11 -50 15 -33 5 -50 12 -50 21 0 8 -5
14 -11 14 -6 0 -9 19 -7 47 2 36 7 49 21 51 12 3 17 -3 17 -20 0 -13 7 -32 15
-42 19 -25 19 -36 0 -36 -8 0 -15 -4 -15 -10 0 -12 24 -12 60 0 17 5 19 8 8 9
-22 1 -23 11 -3 37 8 10 15 36 15 57 0 37 0 37 -40 37 -29 0 -40 4 -40 15 0
15 52 22 124 16 25 -2 28 0 23 18 -6 25 10 38 26 21 9 -10 9 -14 0 -17 -28
-10 -11 -23 30 -22 23 1 34 3 24 6 -12 3 -16 10 -12 21 12 31 10 35 -15 43
-23 7 -23 7 8 8 47 1 40 21 -8 21 -33 0 -40 3 -40 20 0 17 7 20 39 20 23 0 41
5 44 13 2 8 26 11 80 9 l77 -3 0 51 0 50 -40 0 c-33 0 -40 3 -40 20 0 16 7 20
36 20 45 0 64 19 64 64 0 29 4 36 20 36 17 0 20 -7 20 -40 0 -36 3 -40 25 -40
18 0 25 5 25 20 0 11 -7 20 -15 20 -22 0 -18 17 6 23 17 5 19 9 9 26 -6 12
-15 21 -20 21 -6 0 -10 10 -10 22 0 20 4 18 40 -17 38 -38 40 -38 40 -15 -1
34 -22 60 -49 60 -39 0 -70 51 -38 63 9 4 9 8 0 14 -6 4 -13 26 -15 48 -2 30
-6 19 -12 -42 -4 -46 -11 -83 -15 -83 -14 0 -32 42 -23 53 5 7 5 47 -1 100
l-10 87 -89 0 -88 0 0 -40 c0 -33 -3 -40 -20 -40 -17 0 -20 7 -20 40 0 22 -4
40 -10 40 -14 0 -12 -56 4 -115 13 -47 14 -48 21 -22 4 15 11 27 15 27 12 0
15 -30 12 -122 -3 -79 -5 -88 -23 -88 -16 0 -19 7 -19 40 l0 40 -40 0 c-41 0
-46 6 -42 53 2 20 -14 40 -40 50 -24 9 -23 28 2 34 17 5 20 13 18 57 -1 50 -2
50 -5 9 -3 -34 -8 -43 -23 -43 -10 0 -24 -2 -32 -5 -10 -4 -13 6 -11 42 2 35
0 42 -6 28 -8 -18 -9 -19 -16 -2 -9 21 -41 23 -49 2 -3 -8 -10 -15 -17 -15 -6
0 -9 7 -6 15 5 12 -8 14 -83 12 -50 -1 -90 -6 -90 -10z m140 -7 c0 -5 -7 -10
-15 -10 -8 0 -15 5 -15 10 0 6 7 10 15 10 8 0 15 -4 15 -10z m0 -40 c0 -5 -7
-10 -15 -10 -8 0 -15 5 -15 10 0 6 7 10 15 10 8 0 15 -4 15 -10z m-56 -35 c4
-11 -2 -15 -24 -15 -31 0 -48 15 -28 23 25 10 46 7 52 -8z m36 5 c0 -5 -4 -10
-10 -10 -5 0 -10 5 -10 10 0 6 5 10 10 10 6 0 10 -4 10 -10z m117 -52 c-2 -13
-4 -3 -4 22 0 25 2 35 4 23 2 -13 2 -33 0 -45z m-187 0 c0 -4 -5 -8 -11 -8 -5
0 -8 -4 -4 -9 3 -5 1 -12 -5 -16 -6 -3 -10 4 -10 18 0 14 6 24 15 24 8 0 15
-4 15 -9z m83 -9 c19 -1 24 -3 14 -6 -28 -7 -69 6 -61 19 6 9 9 9 12 0 2 -7
18 -13 35 -13z m510 14 c-13 -2 -33 -2 -45 0 -13 2 -3 4 22 4 25 0 35 -2 23
-4z m-55 -65 c-2 -34 -7 -44 -23 -46 -18 -2 -20 2 -17 43 3 37 8 45 24 45 16
0 19 -6 16 -42z m52 2 c0 -22 -4 -40 -10 -40 -5 0 -10 18 -10 40 0 22 5 40 10
40 6 0 10 -18 10 -40z m-455 0 c4 -6 -5 -10 -19 -10 -14 0 -26 5 -26 10 0 6 9
10 19 10 11 0 23 -4 26 -10z m233 -67 c2 -8 -5 -13 -17 -13 -21 0 -35 13 -24
24 10 10 36 3 41 -11z m122 -3 c0 -5 -9 -10 -20 -10 -11 0 -20 5 -20 10 0 6 9
10 20 10 11 0 20 -4 20 -10z m-417 -67 c12 3 32 9 45 12 18 6 21 4 16 -9 -3
-9 -12 -16 -18 -16 -7 0 -21 -6 -32 -14 -18 -14 -18 -15 6 -25 24 -10 24 -10
-7 -10 -29 -1 -33 2 -33 24 0 14 -5 34 -12 44 -7 11 -8 26 -3 37 8 16 10 13
13 -15 3 -28 7 -32 25 -28z m188 -4 c7 -14 6 -19 -3 -19 -17 1 -48 25 -48 38
0 16 40 1 51 -19z m100 22 c-8 -5 -20 -7 -28 -4 -21 8 -15 13 15 13 20 0 23
-3 13 -9z m189 -8 c-1 -26 -24 -53 -46 -52 -17 0 -16 2 4 11 12 6 22 17 22 25
0 7 -10 13 -22 14 -22 1 -22 1 2 9 37 12 40 11 40 -7z m60 -14 c0 -11 -4 -17
-10 -14 -5 3 -10 13 -10 21 0 8 5 14 10 14 6 0 10 -9 10 -21z m-241 -20 c-19
-12 -39 -11 -39 1 0 6 9 10 20 10 11 0 20 6 21 13 0 8 2 8 6 -2 3 -7 -1 -17
-8 -22z m641 21 c0 -5 -4 -10 -10 -10 -5 0 -10 5 -10 10 0 6 5 10 10 10 6 0
10 -4 10 -10z m-422 -43 c2 -12 -3 -17 -17 -17 -12 0 -21 6 -21 13 0 31 32 34
38 4z m-363 -7 c3 -5 -1 -10 -9 -10 -9 0 -16 5 -16 10 0 6 4 10 9 10 6 0 13
-4 16 -10z m-65 -56 c0 -27 -4 -43 -10 -39 -5 3 -10 24 -10 46 0 21 5 39 10
39 6 0 10 -21 10 -46z m1330 26 c0 -5 -18 -10 -40 -10 -22 0 -40 5 -40 10 0 6
18 10 40 10 22 0 40 -4 40 -10z m-1219 -10 c26 -14 24 -32 -3 -28 -13 2 -24
11 -26 21 -4 20 2 21 29 7z m149 -61 c0 -18 30 -36 30 -19 0 6 5 10 10 10 6 0
10 -9 10 -20 0 -26 -12 -25 -60 5 -38 24 -40 24 -40 5 0 -11 4 -20 9 -20 5 0
11 -7 15 -15 4 -11 -1 -15 -18 -15 -20 0 -23 5 -24 50 0 28 3 50 9 50 5 0 9
-4 9 -10 0 -5 7 -10 15 -10 8 0 15 5 15 10 0 6 -7 13 -15 16 -8 4 -15 14 -15
23 0 22 49 -38 50 -60z m-610 51 c0 -5 -9 -10 -20 -10 -11 0 -20 5 -20 10 0 6
9 10 20 10 11 0 20 -4 20 -10z m703 -47 c-7 -2 -19 -2 -25 0 -7 3 -2 5 12 5
14 0 19 -2 13 -5z m1057 2 c0 -8 -34 -45 -42 -45 -12 0 -9 25 4 38 12 12 38
17 38 7z m175 -4 c3 -5 1 -12 -5 -16 -5 -3 -10 1 -10 9 0 18 6 21 15 7z
m-1455 -16 c0 -8 -6 -15 -14 -15 -20 0 -29 17 -14 23 22 9 28 7 28 -8z m1108
-15 c22 0 12 -18 -13 -22 -17 -4 -25 -1 -25 8 0 8 -7 14 -15 14 -8 0 -15 4
-15 9 0 16 24 19 41 5 8 -8 21 -14 27 -14z m-1492 10 c13 0 24 -4 24 -9 0 -12
-72 -21 -84 -11 -13 12 4 32 21 26 8 -3 26 -6 39 -6z m414 -10 c0 -11 -4 -20
-10 -20 -5 0 -10 9 -10 20 0 11 5 20 10 20 6 0 10 -9 10 -20z m1527 -12 c-3
-8 -6 -5 -6 6 -1 11 2 17 5 13 3 -3 4 -12 1 -19z m-337 -13 c0 -16 33 -20 150
-16 62 3 66 2 67 -20 1 -13 -1 -19 -5 -13 -12 18 -59 25 -86 13 -20 -9 -29 -9
-40 0 -8 7 -19 10 -24 7 -5 -3 -73 -6 -151 -7 -90 -2 -137 -6 -129 -12 9 -6 5
-7 -12 -2 -56 15 -78 14 -84 -1 -3 -8 -10 -12 -16 -9 -5 3 -10 -1 -10 -9 0 -9
-7 -16 -15 -16 -9 0 -15 9 -15 25 0 28 -3 29 -31 15 -10 -6 -19 -7 -19 -3 0 9
48 33 67 33 7 0 13 6 13 13 0 8 3 8 8 1 10 -15 37 -23 51 -15 6 4 32 5 56 1
24 -4 50 -3 56 1 7 4 24 3 37 -2 18 -7 28 -6 34 3 6 10 8 10 8 -1 0 -17 52 -5
63 15 11 18 27 18 27 -1z m-1220 -5 c0 -5 -10 -10 -22 -9 -22 0 -22 1 -3 9 11
5 21 9 23 9 1 1 2 -3 2 -9z m1650 -20 c17 0 27 -5 27 -15 0 -11 -11 -15 -39
-15 -21 0 -38 5 -38 10 0 6 -10 15 -22 21 -19 8 -18 9 11 4 18 -3 46 -5 61 -5z
m-75 -30 c-3 -5 -10 -10 -16 -10 -5 0 -9 5 -9 10 0 6 7 10 16 10 8 0 12 -4 9
-10z m-630 -10 c3 -5 -1 -10 -10 -10 -9 0 -13 5 -10 10 3 6 8 10 10 10 2 0 7
-4 10 -10z m532 -6 c-3 -3 -12 -4 -19 -1 -8 3 -5 6 6 6 11 1 17 -2 13 -5z
m-1797 -19 c0 -9 -9 -15 -22 -15 -21 0 -21 0 -2 15 24 18 24 18 24 0z m250 5
c0 -5 -7 -10 -16 -10 -8 0 -12 5 -9 10 3 6 10 10 16 10 5 0 9 -4 9 -10z m1680
-10 c10 -6 11 -10 3 -10 -7 0 -13 -4 -13 -10 0 -5 7 -7 15 -4 8 4 15 1 15 -5
0 -14 -32 -14 -64 1 -24 10 -24 12 -8 24 20 16 32 17 52 4z m-1589 -40 c12 0
17 -5 14 -10 -4 -6 -16 -8 -28 -4 -29 9 -30 10 -21 25 6 10 9 10 12 1 2 -7 13
-12 23 -12z m471 -12 c-9 -9 -12 -7 -12 12 0 19 3 21 12 12 9 -9 9 -15 0 -24z
m-742 12 c0 -5 -4 -10 -10 -10 -5 0 -10 5 -10 10 0 6 5 10 10 10 6 0 10 -4 10
-10z m1918 -12 c-6 -18 13 -36 33 -31 9 3 20 -1 24 -7 5 -9 1 -10 -14 -5 -12
4 -21 2 -21 -4 0 -8 -7 -7 -20 1 -21 13 -28 58 -9 58 6 0 9 -6 7 -12z m-888
-2 c0 -3 -4 -8 -10 -11 -5 -3 -10 -1 -10 4 0 6 5 11 10 11 6 0 10 -2 10 -4z
m-245 -16 c3 -5 -3 -10 -15 -10 -12 0 -18 5 -15 10 3 6 10 10 15 10 5 0 12 -4
15 -10z m-862 -7 c-7 -2 -19 -2 -25 0 -7 3 -2 5 12 5 14 0 19 -2 13 -5z m103
-50 c-6 -7 -46 16 -46 27 0 18 35 15 43 -4 4 -10 5 -21 3 -23z m69 -5 c-13
-10 -35 11 -35 33 0 17 2 16 23 -4 13 -13 18 -25 12 -29z m680 22 c3 -6 -1
-13 -9 -16 -9 -3 -16 -12 -16 -20 0 -17 41 -19 57 -3 8 8 16 7 31 -2 18 -11
24 -10 40 4 10 9 22 14 25 10 9 -9 9 -23 0 -21 -5 1 -25 -6 -46 -15 -28 -12
-44 -14 -63 -7 -33 13 -54 13 -34 0 13 -8 12 -10 -2 -10 -17 0 -23 -12 -18
-35 1 -5 -4 -4 -11 3 -10 9 -10 15 -1 24 6 6 8 16 3 22 -12 16 7 76 24 76 7 0
17 -5 20 -10z m1458 -7 c-13 -2 -33 -2 -45 0 -13 2 -3 4 22 4 25 0 35 -2 23
-4z m-15 -49 c17 -4 32 -10 32 -14 0 -13 -74 -18 -82 -6 -4 6 -8 7 -8 2 0 -12
-30 14 -30 26 0 6 12 8 28 4 15 -3 42 -9 60 -12z m-152 -5 c4 -8 9 -7 15 2 7
11 9 10 9 -3 0 -9 -4 -20 -10 -23 -5 -3 -10 -12 -10 -18 0 -7 7 -4 14 6 23 30
44 21 43 -18 -1 -27 -4 -32 -14 -23 -7 5 -10 14 -7 19 3 5 1 9 -5 9 -6 0 -8
-12 -4 -32 l6 -31 -21 21 c-12 12 -22 26 -22 30 0 5 -9 17 -20 27 -11 10 -20
24 -20 32 0 16 36 18 46 2z m-2061 -48 c-9 -30 -45 -29 -38 2 11 50 12 52 29
35 10 -10 14 -24 9 -37z m27 -29 c-2 -11 2 -23 8 -27 15 -9 12 -45 -4 -45 -8
0 -16 15 -20 38 -9 54 -8 64 7 59 6 -2 11 -13 9 -25z m563 -2 c-17 -19 -35
-19 -35 1 0 6 4 8 8 5 4 -2 14 -1 22 5 23 14 25 11 5 -11z m-67 -1 c-2 -6 -8
-10 -13 -10 -5 0 -11 4 -13 10 -2 6 4 11 13 11 9 0 15 -5 13 -11z m-668 -25
c0 -8 -4 -12 -10 -9 -5 3 -10 10 -10 16 0 5 5 9 10 9 6 0 10 -7 10 -16z m106
-44 c35 0 64 -18 64 -40 0 -22 -29 -40 -64 -40 -35 0 -36 1 -36 40 0 36 -2 40
-25 40 l-26 0 23 31 23 31 3 -31 c3 -28 6 -31 38 -31z m-236 35 l25 -14 -32
-1 c-23 0 -33 5 -33 15 0 18 8 18 40 0z m874 0 c-4 -8 -13 -15 -21 -15 -13 0
-13 3 -3 15 7 8 16 15 21 15 5 0 6 -7 3 -15z m1533 -7 c-3 -8 -6 -5 -6 6 -1
11 2 17 5 13 3 -3 4 -12 1 -19z m-1697 2 c0 -5 -7 -10 -15 -10 -8 0 -15 5 -15
10 0 6 7 10 15 10 8 0 15 -4 15 -10z m117 -20 c3 -11 10 -17 16 -13 6 3 7 1 3
-5 -4 -6 -13 -9 -21 -5 -9 3 -15 -1 -15 -9 0 -15 -41 -68 -52 -68 -3 0 -5 8
-3 18 1 9 0 11 -2 5 -3 -7 -12 -13 -21 -13 -14 0 -15 -2 -2 -10 8 -5 11 -12 7
-17 -5 -4 -12 -1 -16 6 -5 7 -14 10 -21 6 -8 -5 -8 -11 -2 -17 12 -12 5 -38
-10 -38 -5 0 -7 8 -3 19 4 13 -2 23 -20 35 -19 13 -23 21 -16 33 9 18 -14 52
-27 39 -3 -4 0 -11 8 -16 8 -5 12 -12 9 -15 -8 -7 -39 5 -39 16 0 14 43 39 67
39 25 0 29 -10 11 -28 -8 -8 -8 -12 -1 -12 5 0 8 -11 6 -24 -4 -21 -2 -24 15
-19 14 3 25 20 33 49 9 30 18 44 29 42 8 -2 15 -12 15 -22 0 -11 5 -21 11 -23
7 -2 12 2 11 9 -2 55 19 82 30 38z m-773 -25 c6 -16 1 -19 -46 -29 -16 -4 -27
-11 -25 -17 1 -7 -4 -14 -10 -16 -8 -3 -13 3 -13 15 0 14 9 21 30 26 17 3 30
9 29 13 -4 27 25 33 35 8z m64 -7 c-3 -7 -12 -14 -21 -16 -12 -2 -15 1 -11 12
7 19 38 22 32 4z m2322 -43 c0 -8 -2 -15 -4 -15 -2 0 -6 7 -10 15 -3 8 -1 15
4 15 6 0 10 -7 10 -15z m-2332 -7 c7 -7 12 -19 12 -27 -1 -13 -2 -13 -11 2 -5
9 -17 17 -25 17 -8 0 -12 5 -9 10 8 13 18 13 33 -2z m152 -38 c0 -13 -7 -20
-20 -20 -13 0 -20 7 -20 20 0 13 7 20 20 20 13 0 20 -7 20 -20z m50 -10 c0
-11 -6 -20 -14 -20 -10 0 -12 -11 -8 -47 3 -27 9 -49 13 -51 5 -2 9 -10 9 -18
0 -19 -44 -18 -60 1 -10 13 -9 15 9 15 28 0 27 23 -1 43 l-23 16 23 0 c24 1
30 16 10 25 -10 5 -10 7 0 12 6 3 12 14 12 25 0 10 7 19 15 19 8 0 15 -9 15
-20z m2171 -3 c-13 -13 -26 -3 -16 12 3 6 11 8 17 5 6 -4 6 -10 -1 -17z
m-2261 -23 c0 -3 -7 -12 -15 -20 -11 -11 -19 -12 -32 -5 -16 9 -16 10 5 11 12
0 22 5 22 10 0 6 5 10 10 10 6 0 10 -3 10 -6z m479 -31 c-7 -10 -15 -20 -16
-22 -2 -2 -3 5 -3 17 0 14 6 22 16 22 14 0 15 -3 3 -17z m-29 -3 c0 -5 -4 -10
-10 -10 -5 0 -10 5 -10 10 0 6 5 10 10 10 6 0 10 -4 10 -10z m-570 -20 c0 -5
-9 -10 -20 -10 -11 0 -20 5 -20 10 0 6 9 10 20 10 11 0 20 -4 20 -10z m-186
-9 c3 -5 -1 -12 -10 -15 -22 -9 -24 -8 -24 9 0 16 25 21 34 6z m2686 0 c0 -13
-28 -22 -35 -11 -3 4 1 11 7 13 20 8 28 8 28 -2z m-2373 -27 c-3 -3 -12 -4
-19 -1 -8 3 -5 6 6 6 11 1 17 -2 13 -5z m-347 -14 c0 -5 7 -10 15 -10 8 0 15
-9 15 -20 0 -11 -7 -20 -15 -20 -8 0 -15 9 -15 20 0 11 -6 20 -14 20 -8 0 -18
5 -21 10 -3 6 3 10 14 10 12 0 21 -4 21 -10z m700 -15 c0 -18 -5 -25 -20 -25
-15 0 -20 7 -20 25 0 18 5 25 20 25 15 0 20 -7 20 -25z m1970 15 c0 -5 -4 -10
-10 -10 -5 0 -10 5 -10 10 0 6 5 10 10 10 6 0 10 -4 10 -10z m44 -5 c3 -9 0
-15 -9 -15 -8 0 -15 7 -15 15 0 8 4 15 9 15 5 0 11 -7 15 -15z m-2118 -46 c1
-24 0 -38 -3 -31 -2 6 -11 12 -19 12 -17 0 -19 -51 -2 -68 9 -9 9 -12 0 -12
-7 0 -12 -7 -12 -15 0 -8 6 -15 14 -15 17 0 30 -35 20 -52 -5 -8 -2 -9 10 -5
10 4 24 7 32 7 17 0 8 49 -12 65 -11 8 -10 14 1 29 15 19 15 19 15 -3 0 -12 4
-19 10 -16 6 4 8 -5 6 -22 -2 -15 -1 -22 1 -15 5 14 23 16 23 3 0 -6 -4 -13
-10 -16 -16 -10 -11 -28 6 -21 8 3 12 2 9 -4 -3 -6 -13 -10 -21 -10 -10 0 -12
-5 -8 -12 12 -18 12 -48 1 -48 -5 0 -6 -17 -2 -40 4 -26 3 -40 -4 -40 -7 0
-11 21 -11 50 0 28 -4 50 -10 50 -5 0 -7 -7 -4 -15 4 -8 1 -15 -5 -15 -7 0 -9
-10 -5 -26 8 -30 -10 -47 -38 -38 -10 3 -18 1 -18 -5 0 -6 14 -11 30 -11 28 0
30 -2 30 -39 0 -23 -5 -41 -12 -44 -10 -3 -10 -8 2 -22 14 -17 15 -16 21 6 7
23 7 23 8 2 1 -12 -4 -25 -10 -28 -5 -4 -8 -21 -5 -38 3 -18 3 -25 -1 -17 -3
8 -12 20 -19 27 -15 16 -23 -2 -25 -55 l-2 -37 -7 35 c-4 19 -8 30 -9 24 0 -6
-14 -9 -29 -6 -21 3 -36 -4 -62 -28 -21 -19 -41 -30 -52 -27 -21 6 -30 -5 -22
-27 4 -11 19 -16 44 -16 22 0 42 -5 46 -11 4 -8 9 -7 15 2 7 11 9 11 9 1 0 -7
-7 -15 -15 -18 -18 -7 -10 -24 11 -24 9 0 12 5 8 12 -5 8 -2 9 10 5 10 -4 23
-7 30 -7 7 0 13 -7 13 -15 0 -11 -4 -12 -11 -5 -5 5 -16 10 -24 10 -12 0 -12
-3 -2 -15 9 -10 9 -15 1 -15 -6 0 -11 4 -11 9 0 5 -10 11 -22 13 -17 2 -22 9
-21 26 2 19 -2 22 -37 22 -27 0 -42 6 -49 18 -9 15 -12 15 -21 2 -6 -9 -10
-10 -10 -3 0 6 7 19 16 27 11 11 14 25 9 46 -4 19 -3 30 4 30 6 0 11 5 11 10
0 6 -15 10 -34 10 -24 0 -36 -5 -39 -17 -4 -16 -5 -16 -6 -1 0 9 4 20 9 23 20
12 10 35 -14 35 -14 0 -28 5 -31 10 -3 6 1 10 10 10 9 0 14 4 10 10 -3 5 -12
7 -20 3 -11 -4 -13 -1 -9 11 8 22 37 20 54 -4 8 -11 20 -20 28 -20 16 0 42
-24 42 -39 0 -6 4 -11 10 -11 6 0 6 -9 0 -26 -14 -35 -13 -44 6 -44 20 0 44
24 44 44 0 9 5 16 10 16 6 0 10 18 10 40 l0 40 -40 0 c-22 0 -41 -1 -43 -2 -8
-8 -73 70 -75 90 -2 19 3 22 38 22 36 0 40 3 40 25 0 23 -4 25 -45 25 l-45 0
0 -40 c0 -33 -3 -40 -20 -40 -17 0 -20 7 -20 39 0 30 -4 41 -17 43 -10 3 19 8
65 12 45 5 82 13 82 18 0 7 -22 9 -62 4 -47 -5 -59 -3 -51 5 7 7 35 14 62 17
28 2 51 8 51 13 0 5 13 9 28 9 33 0 56 33 50 70 -3 23 -4 23 -21 5 -12 -11
-21 -14 -25 -8 -4 5 -14 13 -22 16 -10 4 -8 6 7 6 37 2 36 20 -1 38 -20 9 -36
20 -36 25 0 12 18 9 22 -4 6 -17 39 -1 45 22 6 23 33 27 33 5 0 -8 7 -15 15
-15 11 0 15 -11 15 -40 0 -33 3 -40 20 -40 17 0 20 7 20 39 0 34 -4 41 -35 55
-40 19 -50 52 -12 42 12 -3 30 -6 39 -6 9 0 19 -10 21 -22 5 -21 5 -21 5 2 0
38 1 42 14 38 7 -3 13 -24 14 -49z m55 11 c5 0 9 -6 9 -14 0 -8 6 -16 13 -19
8 -3 9 -8 1 -16 -17 -19 -51 18 -48 54 3 40 6 44 11 18 2 -13 9 -23 14 -23z
m-365 20 c27 0 34 -4 34 -20 0 -16 -7 -20 -34 -20 -48 0 -66 9 -66 32 0 14 5
18 16 14 9 -3 31 -6 50 -6z m1658 -89 c31 -43 65 -99 75 -125 30 -68 51 -185
51 -276 0 -45 4 -80 10 -80 17 0 92 103 126 174 33 68 46 117 62 226 l8 55 36
-50 c64 -86 118 -201 118 -250 0 -61 -36 -260 -58 -325 -33 -95 -89 -195 -129
-231 -48 -43 -146 -103 -193 -117 -19 -6 -67 -16 -107 -23 l-71 -12 -7 -78 -7
-77 -46 -20 c-69 -30 -163 -52 -219 -52 l-49 0 7 62 c5 35 6 91 2 125 l-6 62
-96 72 c-92 69 -181 163 -195 206 -5 16 4 26 56 58 101 62 221 159 292 237 51
56 80 103 129 203 36 72 76 164 91 205 41 113 45 122 56 115 5 -3 34 -41 64
-84z m723 27 c-3 -7 -5 -2 -5 12 0 14 2 19 5 13 2 -7 2 -19 0 -25z m-2578 -4
c21 -20 -3 -61 -45 -76 -18 -6 -35 -19 -38 -27 -3 -11 -5 -10 -4 4 0 28 -13
65 -23 65 -4 0 -3 14 3 31 10 29 12 30 52 24 22 -4 47 -13 55 -21z m-119 6 c0
-5 -4 -10 -10 -10 -5 0 -10 5 -10 10 0 6 5 10 10 10 6 0 10 -4 10 -10z m345
-1 c-18 -5 -33 -5 -39 1 -7 7 4 10 30 9 39 -1 39 -1 9 -10z m-155 -46 c0 -13
-5 -23 -12 -23 -9 0 -9 -3 0 -12 10 -10 15 -10 22 2 12 20 26 4 33 -37 5 -26
3 -33 -9 -33 -14 0 -14 -2 0 -15 8 -8 22 -15 30 -15 9 0 16 -5 16 -11 0 -14
-72 -2 -81 13 -4 6 -5 20 -3 32 2 11 2 15 -2 9 -3 -7 -11 -13 -17 -13 -8 0
-12 22 -13 64 -1 57 1 64 18 63 12 -1 18 -9 18 -24z m210 -14 c0 -5 -12 -9
-27 -9 -26 0 -26 1 -8 14 20 14 35 12 35 -5z m330 -24 c0 -8 -2 -15 -4 -15 -2
0 -6 7 -10 15 -3 8 -1 15 4 15 6 0 10 -7 10 -15z m-610 -25 c0 -16 -5 -30 -11
-30 -6 0 -9 -7 -6 -14 4 -10 1 -13 -9 -9 -17 6 -18 19 -3 29 6 3 8 17 5 30 -5
17 -2 24 9 24 10 0 15 -10 15 -30z m-43 -10 c-13 -21 -27 -26 -27 -10 0 6 5
10 10 10 6 0 10 7 10 16 0 8 4 12 10 9 6 -4 5 -13 -3 -25z m273 -15 c0 -9 -9
-15 -21 -15 -18 0 -19 2 -9 15 7 8 16 15 21 15 5 0 9 -7 9 -15z m-196 -42
c-12 -12 -18 -13 -27 -4 -14 14 8 32 29 24 11 -4 10 -8 -2 -20z m2619 -16 c10
-16 12 -33 7 -62 l-8 -40 -1 43 c0 23 -5 42 -11 42 -5 0 -10 9 -10 20 0 26 4
25 23 -3z m287 3 c0 -13 -7 -20 -20 -20 -13 0 -20 7 -20 20 0 13 7 20 20 20
13 0 20 -7 20 -20z m-2915 -20 c3 -5 1 -10 -4 -10 -6 0 -11 5 -11 10 0 6 2 10
4 10 3 0 8 -4 11 -10z m54 -43 c14 4 14 3 1 -6 -13 -10 -13 -12 0 -21 11 -7
11 -10 2 -10 -7 0 -15 7 -18 15 -4 8 -13 15 -21 15 -8 0 -11 5 -7 11 4 7 10 7
16 1 6 -6 18 -8 27 -5z m2749 -44 c2 -8 -5 -13 -17 -13 -12 0 -21 6 -21 16 0
18 31 15 38 -3z m-68 -37 c0 -3 -4 -8 -10 -11 -5 -3 -10 -1 -10 4 0 6 5 11 10
11 6 0 10 -2 10 -4z m-2603 -88 c-3 -7 -5 -2 -5 12 0 14 2 19 5 13 2 -7 2 -19
0 -25z m2751 12 c10 -16 10 -24 0 -40 -16 -25 -31 -25 -49 -2 -13 15 -12 16 3
3 15 -11 19 -11 24 3 3 9 3 24 -1 34 -5 11 -9 13 -12 5 -5 -15 -33 -18 -33 -4
0 9 19 17 45 20 6 0 16 -8 23 -19z m-2678 -40 c0 -5 -11 -10 -25 -10 -14 0
-25 5 -25 10 0 6 11 10 25 10 14 0 25 -4 25 -10z m277 -42 c-3 -8 -6 -5 -6 6
-1 11 2 17 5 13 3 -3 4 -12 1 -19z m2363 2 c0 -5 -7 -10 -15 -10 -8 0 -15 5
-15 10 0 6 7 10 15 10 8 0 15 -4 15 -10z m-2600 -46 c0 -14 -4 -22 -10 -19 -5
3 -10 17 -10 31 0 14 4 22 10 19 6 -3 10 -17 10 -31z m2500 26 c0 -5 -4 -10
-10 -10 -5 0 -10 5 -10 10 0 6 5 10 10 10 6 0 10 -4 10 -10z m18 -39 c0 -16
-6 -35 -14 -42 -9 -7 -14 -8 -14 -1 0 6 5 14 10 17 16 10 11 25 -6 18 -14 -5
-13 -3 2 15 10 12 19 22 20 22 0 0 1 -13 2 -29z m87 18 c4 -6 5 -12 2 -15 -7
-7 -37 7 -37 17 0 13 27 11 35 -2z m-2417 -9 c13 0 12 -3 -6 -15 -17 -13 -26
-14 -43 -4 -17 9 -19 13 -8 20 8 5 20 7 27 4 8 -3 21 -5 30 -5z m2204 -48
c-16 -4 -18 -3 -27 26 l-7 23 24 -23 c16 -16 19 -24 10 -26z m-2176 -40 c-12
-11 -16 6 -9 39 l8 34 3 -33 c2 -19 1 -36 -2 -40z m21 21 c-3 -10 -5 -2 -5 17
0 19 2 27 5 18 2 -10 2 -26 0 -35z m2361 -8 c3 -3 -15 -5 -41 -4 -26 1 -47 6
-47 11 0 9 78 3 88 -7z m55 -5 c4 -16 0 -20 -19 -20 -13 0 -24 6 -24 13 0 32
35 37 43 7z m-2544 -64 c0 -29 -1 -30 -10 -8 -5 13 -13 21 -17 18 -5 -3 -7 6
-4 20 6 35 32 12 31 -30z m26 4 c3 -5 1 -10 -4 -10 -6 0 -11 5 -11 10 0 6 2
10 4 10 3 0 8 -4 11 -10z m2785 -40 c0 -5 -7 -7 -15 -4 -8 4 -15 8 -15 10 0 2
7 4 15 4 8 0 15 -4 15 -10z"/>
<path d="M1601 2914 c0 -11 3 -14 6 -6 3 7 2 16 -1 19 -3 4 -6 -2 -5 -13z"/>
<path d="M2500 2671 c0 -6 5 -13 10 -16 6 -3 10 1 10 9 0 9 -4 16 -10 16 -5 0
-10 -4 -10 -9z"/>
<path d="M642 1750 c0 -14 2 -19 5 -12 2 6 2 18 0 25 -3 6 -5 1 -5 -13z"/>
<path d="M1865 1786 c-18 -43 -19 -58 -3 -74 34 -34 82 11 76 70 -2 28 -7 34
-31 36 -23 3 -30 -2 -42 -32z"/>
<path d="M2349 1759 c-28 -28 -24 -93 8 -97 40 -6 72 75 41 106 -17 17 -25 15
-49 -9z"/>
<path d="M2139 1472 c-29 -3 -98 -56 -87 -67 3 -4 24 5 45 19 58 40 105 33
114 -17 5 -24 25 -17 21 7 -6 42 -42 64 -93 58z"/>
<path d="M1894 1099 c-3 -6 -2 -15 4 -21 13 -13 32 -2 32 18 0 16 -26 19 -36
3z"/>
<path d="M1900 1010 c-11 -7 -12 -12 -4 -20 8 -8 14 -7 23 4 14 17 1 28 -19
16z"/>
<path d="M110 2185 c-9 -11 -10 -19 -2 -27 14 -14 35 0 27 19 -4 13 -3 14 10
3 8 -7 15 -8 15 -2 0 5 -7 13 -16 16 -21 8 -20 8 -34 -9z"/>
<path d="M3440 3465 c0 -20 5 -25 25 -25 20 0 25 5 25 25 0 20 -5 25 -25 25
-20 0 -25 -5 -25 -25z"/>
<path d="M3440 3420 c0 -5 11 -10 25 -10 14 0 25 5 25 10 0 6 -11 10 -25 10
-14 0 -25 -4 -25 -10z"/>
<path d="M3280 3321 c0 -14 37 -23 60 -16 11 4 20 2 20 -4 0 -12 36 -14 93 -5
42 7 52 34 12 34 -14 0 -25 -4 -25 -10 0 -5 -18 -10 -40 -10 -22 0 -40 5 -40
10 0 6 -18 10 -40 10 -22 0 -40 -4 -40 -9z"/>
<path d="M764 3307 c-3 -9 -3 -25 0 -34 6 -15 8 -15 24 0 15 16 15 18 0 34
-16 15 -18 15 -24 0z"/>
<path d="M3293 3274 c-18 -8 -16 -24 2 -24 8 0 15 -7 15 -15 0 -8 -7 -15 -15
-15 -9 0 -15 -9 -15 -25 0 -20 5 -25 25 -25 16 0 25 6 25 15 0 8 7 15 15 15
10 0 15 -10 15 -29 0 -30 14 -41 56 -41 22 0 24 -4 24 -45 0 -41 2 -45 25 -45
l25 0 0 115 0 115 -64 0 c-35 0 -76 2 -92 5 -16 2 -35 2 -41 -1z"/>
<path d="M110 3240 c0 -5 -7 -10 -15 -10 -8 0 -15 -9 -15 -20 0 -11 7 -20 15
-20 8 0 15 -4 15 -10 0 -5 11 -10 25 -10 14 0 25 5 25 10 0 6 -7 10 -15 10 -8
0 -15 9 -15 20 0 11 7 20 15 20 8 0 15 5 15 10 0 6 -11 10 -25 10 -14 0 -25
-4 -25 -10z"/>
<path d="M2910 3130 c0 -29 -4 -40 -15 -40 -10 0 -15 -10 -15 -30 0 -24 4 -30
23 -30 12 -1 36 -7 52 -15 27 -13 27 -14 5 -10 -16 3 -34 -3 -49 -15 l-23 -20
22 -18 c15 -12 41 -19 76 -20 53 -1 73 11 34 21 -11 3 -20 10 -20 17 0 7 9 14
20 17 23 6 27 23 5 23 -11 0 -15 11 -15 40 0 36 -2 40 -25 40 -22 0 -25 4 -25
40 0 36 -2 40 -25 40 -22 0 -25 -4 -25 -40z"/>
<path d="M1180 3150 c-12 -7 -12 -12 -3 -21 15 -15 26 -7 21 15 -2 11 -7 13
-18 6z"/>
<path d="M3360 3110 c0 -16 7 -20 35 -20 43 0 44 5 5 25 -37 19 -40 19 -40 -5z"/>
<path d="M0 2870 c0 -35 4 -60 10 -60 6 0 10 -8 8 -17 -2 -14 7 -17 54 -20
l58 -4 0 42 0 41 -42 -4 c-24 -3 -34 -3 -23 0 18 4 18 5 -5 18 l-25 14 23 6
c29 8 28 22 -4 34 -49 19 -54 15 -54 -50z m62 -72 c-6 -6 -16 -7 -22 -3 -9 6
-9 9 1 16 17 10 34 0 21 -13z"/>
<path d="M1120 2879 c0 -11 5 -17 10 -14 6 3 10 13 10 21 0 8 -4 14 -10 14 -5
0 -10 -9 -10 -21z"/>
<path d="M2520 2839 c0 -6 9 -8 20 -4 25 8 28 -20 3 -30 -30 -12 23 -27 60
-17 45 12 39 33 -13 48 -55 17 -70 17 -70 3z"/>
<path d="M2786 2711 c-4 -7 -5 -15 -2 -18 9 -9 19 4 14 18 -4 11 -6 11 -12 0z"/>
<path d="M30 2595 c0 -8 -7 -15 -15 -15 -11 0 -15 -10 -14 -37 0 -21 3 -32 6
-25 2 6 13 12 23 12 10 0 21 -6 24 -12 3 -7 2 0 -1 16 -5 26 -4 28 15 24 15
-4 22 0 26 16 9 34 8 36 -29 36 -24 0 -35 -5 -35 -15z"/>
<path d="M2793 2570 c0 -25 2 -35 4 -22 2 12 2 32 0 45 -2 12 -4 2 -4 -23z"/>
<path d="M657 2474 c-15 -15 -6 -24 24 -24 20 0 29 4 27 13 -5 14 -40 21 -51
11z"/>
<path d="M2717 2430 c6 -24 26 -21 31 3 2 11 -3 17 -16 17 -15 0 -19 -5 -15
-20z"/>
<path d="M3368 2443 c7 -3 16 -2 19 1 4 3 -2 6 -13 5 -11 0 -14 -3 -6 -6z"/>
<path d="M3428 2433 c-31 -8 -20 -23 16 -23 38 0 55 14 30 24 -17 6 -19 6 -46
-1z"/>
<path d="M3360 2400 c0 -5 7 -10 15 -10 8 0 15 5 15 10 0 6 -7 10 -15 10 -8 0
-15 -4 -15 -10z"/>
<path d="M18 2373 c12 -2 32 -2 45 0 12 2 2 4 -23 4 -25 0 -35 -2 -22 -4z"/>
<path d="M3392 2373 c-29 -6 -23 -29 7 -26 13 2 21 -3 21 -12 0 -11 -8 -15
-27 -13 -22 2 -28 -1 -27 -14 1 -11 -5 -18 -17 -18 -10 0 -19 -4 -19 -9 0 -5
-9 -11 -20 -14 -11 -3 -20 -10 -20 -17 0 -7 9 -14 20 -17 11 -3 20 -9 20 -14
0 -5 7 -9 15 -9 11 0 15 -11 15 -40 l0 -40 40 0 40 0 0 78 c0 71 2 78 23 87
16 7 23 20 25 48 l3 37 -38 -1 c-21 -1 -48 -4 -61 -6z m-32 -125 c0 -16 -3
-19 -11 -11 -6 6 -8 16 -5 22 11 17 16 13 16 -11z"/>
<path d="M720 2360 c0 -5 4 -10 9 -10 6 0 13 5 16 10 3 6 -1 10 -9 10 -9 0
-16 -4 -16 -10z"/>
<path d="M800 2359 c0 -5 5 -7 10 -4 6 3 10 8 10 11 0 2 -4 4 -10 4 -5 0 -10
-5 -10 -11z"/>
<path d="M796 2325 c4 -8 8 -15 10 -15 2 0 4 7 4 15 0 8 -4 15 -10 15 -5 0 -7
-7 -4 -15z"/>
<path d="M2920 2170 c0 -29 4 -40 15 -40 11 0 15 11 15 40 0 29 -4 40 -15 40
-11 0 -15 -11 -15 -40z"/>
<path d="M3363 1690 c0 -25 2 -35 4 -22 2 12 2 32 0 45 -2 12 -4 2 -4 -23z"/>
<path d="M3433 1690 c0 -25 2 -35 4 -22 2 12 2 32 0 45 -2 12 -4 2 -4 -23z"/>
<path d="M3200 1610 c0 -36 2 -40 26 -40 14 0 23 4 20 8 -3 5 4 15 15 22 10 8
19 22 19 32 0 14 -8 18 -40 18 l-40 0 0 -40z"/>
<path d="M3372 1638 c-15 -15 -16 -45 -1 -54 8 -4 7 -9 -2 -15 -9 -6 2 -8 31
-8 25 0 40 3 33 6 -10 3 -10 9 0 24 23 36 -30 78 -61 47z m44 -19 c10 -17 -13
-36 -27 -22 -12 12 -4 33 11 33 5 0 12 -5 16 -11z"/>
<path d="M3367 1544 c-18 -19 -2 -25 57 -22 82 3 77 12 -14 25 -19 2 -38 1
-43 -3z"/>
<path d="M3245 1530 c3 -5 13 -10 21 -10 8 0 14 5 14 10 0 6 -9 10 -21 10 -11
0 -17 -4 -14 -10z"/>
<path d="M281 404 c0 -11 3 -14 6 -6 3 7 2 16 -1 19 -3 4 -6 -2 -5 -13z"/>
<path d="M291 364 c0 -11 3 -14 6 -6 3 7 2 16 -1 19 -3 4 -6 -2 -5 -13z"/>
<path d="M248 74 c-38 -19 -68 -37 -68 -39 0 -3 32 11 70 30 39 19 70 37 70
40 0 7 3 8 -72 -31z"/>
</g>
</svg>
